<?xml version="1.0" encoding="UTF-8"?>
<svg version="1.1" xmlns="http://www.w3.org/2000/svg" width="880" height="541">
<path d="M0 0 C290.4 0 580.8 0 880 0 C880 178.53 880 357.06 880 541 C589.6 541 299.2 541 0 541 C0 362.47 0 183.94 0 0 Z " fill="#F0F0F0" transform="translate(0,0)"/>
<path d="M0 0 C-2.37255867 10.68492734 -13.63032851 20.81746756 -20.47509766 29.14306641 C-22.53416941 31.65047911 -24.57806576 34.17017513 -26.625 36.6875 C-31.1986425 42.26917664 -35.85325313 47.78003524 -40.53222656 53.2734375 C-42.05447076 55.06407472 -43.57033944 56.85998563 -45.0859375 58.65625 C-49.94487161 64.39495029 -54.81816061 69.98784893 -60.22265625 75.2265625 C-61.99867431 76.99867723 -63.62434803 78.83976147 -65.25 80.75 C-71.96464955 88.5402227 -79.38779889 95.7740759 -87.21875 102.43359375 C-89.00879417 104.00773347 -90.65690218 105.6608315 -92.3125 107.375 C-95.97305439 111.10241383 -99.98021787 114.33591174 -104.05859375 117.59375 C-106.3449297 119.46411248 -108.5559409 121.37027238 -110.76171875 123.33203125 C-115.13573457 127.17662877 -119.71017096 130.70463622 -124.375 134.1875 C-125.24278076 134.83605957 -126.11056152 135.48461914 -127.00463867 136.15283203 C-140.14581596 145.89437899 -153.79003709 154.89362075 -168 163 C-168.97090576 163.5583252 -168.97090576 163.5583252 -169.96142578 164.12792969 C-180.81113774 170.30744517 -191.98113745 174.99336957 -203.73242188 179.18798828 C-205.59426936 179.85470929 -207.44697656 180.54690228 -209.296875 181.24609375 C-248.36164004 195.42638275 -293.72472851 191.08501981 -331.05957031 173.9296875 C-341.184262 169.07880351 -350.22285942 162.9770384 -359 156 C-359.65484375 155.51144531 -360.3096875 155.02289063 -360.984375 154.51953125 C-371.13758956 146.57859968 -379.24503206 133.8840329 -381 121 C-382.17194439 106.33293837 -378.08187098 94.9966512 -369.03515625 83.50390625 C-359.29067577 72.20876703 -347.90080301 64.17957733 -335 57 C-334.2898877 56.5978125 -333.57977539 56.195625 -332.84814453 55.78125 C-320.03887788 48.56634953 -306.80157528 43.02688955 -293 38 C-291.95682617 37.61569824 -291.95682617 37.61569824 -290.89257812 37.22363281 C-281.00454846 33.61722865 -270.85809573 31.05865752 -260.66796875 28.46875 C-257.297314 27.60772793 -253.94710926 26.71276348 -250.61328125 25.71875 C-237.07754036 21.6905417 -223.25466912 19.20738176 -209.38378906 16.6394043 C-206.57491964 16.10863741 -203.78055196 15.53796169 -200.984375 14.9453125 C-194.45939442 13.62807868 -187.85220011 12.88023402 -181.25 12.0625 C-178.45031287 11.71127742 -175.65091155 11.35781228 -172.8515625 11.00390625 C-172.16415985 10.91730743 -171.4767572 10.83070862 -170.76852417 10.7414856 C-166.19212068 10.16163451 -161.62724073 9.52406691 -157.06347656 8.85327148 C-105.11887793 1.32785757 -52.4189371 -0.70310172 0 0 Z " fill="#F0F0F0" transform="translate(417,305)"/>
<path d="M0 0 C1.00841305 3.1799306 1.12485201 4.67516082 -0.08886719 7.83300781 C-0.65250977 8.86264648 -1.21615234 9.89228516 -1.796875 10.953125 C-2.42005615 12.11610107 -3.0432373 13.27907715 -3.68530273 14.47729492 C-4.02165741 15.09124115 -4.35801208 15.70518738 -4.70455933 16.33773804 C-6.49016879 19.60387561 -8.22425614 22.89701071 -9.95703125 26.19140625 C-10.48303673 27.18972221 -10.48303673 27.18972221 -11.01966858 28.20820618 C-14.09448606 34.08846178 -16.8287209 40.0861926 -19.4375 46.1875 C-23.67081885 56.06205143 -28.14703512 65.79419025 -32.75 75.5 C-38.09950908 86.78985568 -43.35782685 98.11419655 -48.5 109.5 C-53.89095277 121.43299866 -59.41018761 133.29905771 -65.01025391 145.13525391 C-70.25605259 156.22832891 -75.37746382 167.37219501 -80.42825317 178.55526733 C-84.83869017 188.31557672 -89.34788119 198.02340554 -93.93673706 207.7010498 C-99.70018003 219.86099529 -105.36136063 232.06311399 -110.86013794 244.3453064 C-111.5718865 245.93394338 -112.28593596 247.52155174 -113.00241089 249.10806274 C-113.99719342 251.31365265 -114.98240451 253.52326439 -115.96484375 255.734375 C-116.25883057 256.38284897 -116.55281738 257.03132294 -116.85571289 257.69944763 C-118.58443353 261.62815537 -119.27235911 264.63415464 -120 269 C-106.635 269.495 -106.635 269.495 -93 270 C-92.01 267.03 -91.02 264.06 -90 261 C-89.3858837 259.45009401 -88.74916258 257.90851643 -88.07055664 256.38574219 C-87.72332047 255.60173035 -87.37608429 254.81771851 -87.01832581 254.00994873 C-86.46978188 252.79072723 -86.46978188 252.79072723 -85.91015625 251.546875 C-85.52435898 250.6836261 -85.13856171 249.8203772 -84.74107361 248.93096924 C-83.93061115 247.12159611 -83.11788297 245.31323627 -82.30297852 243.50585938 C-81.06125697 240.74723847 -79.83209763 237.98324332 -78.60351562 235.21875 C-77.81065277 233.45278497 -77.01705817 231.68714824 -76.22265625 229.921875 C-75.85898453 229.10096375 -75.49531281 228.28005249 -75.12062073 227.43426514 C-73.17054613 223.14104638 -71.17625584 219.55369026 -68 216 C-66.02 216.33 -64.04 216.66 -62 217 C-60.72973949 221.33368393 -61.328109 223.75979885 -62.9921875 227.91015625 C-63.4461792 229.05645508 -63.9001709 230.20275391 -64.36791992 231.38378906 C-64.86525635 232.59776367 -65.36259277 233.81173828 -65.875 235.0625 C-66.37865263 236.31582311 -66.88165936 237.56940595 -67.3840332 238.82324219 C-71.62804397 249.34920285 -76.22622863 259.70512192 -81 270 C-80.09517883 269.99541779 -79.19035767 269.99083557 -78.25811768 269.9861145 C-53.97238815 269.88106946 -29.71636398 270.19629481 -5.43861389 270.80771637 C-2.70662554 270.87608546 0.0254018 270.94264269 2.75744629 271.00872803 C31.51863589 271.70654139 60.26233985 272.62119526 89 274 C89.24459961 273.19836426 89.48919922 272.39672852 89.74121094 271.57080078 C91.28204035 267.19993752 93.18227599 263.06410896 95.140625 258.8671875 C95.54528992 257.99409943 95.94995483 257.12101135 96.36688232 256.22146606 C97.22271294 254.37675105 98.08010715 252.53276075 98.93896484 250.68945312 C100.23523735 247.9066916 101.52623164 245.12153056 102.81640625 242.3359375 C105.19200399 237.21496749 107.5889842 232.1043807 110 227 C110.47602661 225.9873407 110.47602661 225.9873407 110.96166992 224.95422363 C111.77211851 223.23834322 112.59636017 221.52899555 113.421875 219.8203125 C113.8559668 218.91812988 114.29005859 218.01594727 114.73730469 217.08642578 C116 215 116 215 119 213 C121.625 212.8125 121.625 212.8125 124 213 C124.33 213.33 124.66 213.66 125 214 C124.75429067 221.78709572 121.64510464 228.42239518 118.625 235.5 C118.08845428 236.77676341 117.55232665 238.05370259 117.01660156 239.33081055 C111.95105385 251.34395264 106.54634049 263.20163147 101 275 C101.61415771 274.98839844 102.22831543 274.97679687 102.86108398 274.96484375 C104.07260132 274.95130859 104.07260132 274.95130859 105.30859375 274.9375 C106.10837646 274.92589844 106.90815918 274.91429687 107.73217773 274.90234375 C110.47542688 275.02047268 112.56835919 275.74495958 115 277 C115 278.32 115 279.64 115 281 C111.78658631 282.60670684 108.37041032 281.82510855 104.875 281.5625 C104.12089844 281.51029297 103.36679687 281.45808594 102.58984375 281.40429688 C100.7262063 281.27454996 98.86305004 281.13792512 97 281 C96.77441406 281.79148437 96.54882812 282.58296875 96.31640625 283.3984375 C94.6130596 288.05863219 92.30442826 292.2727981 89.9375 296.625 C89.02587996 298.30248317 88.11816984 299.98209851 87.21484375 301.6640625 C86.81386475 302.40092285 86.41288574 303.1377832 85.99975586 303.89697266 C85.03382809 305.92884124 84.45928854 307.80372623 84 310 C90.08104678 306.74176012 95.9226645 303.20052648 101.71484375 299.453125 C106.18635955 296.60969957 109.768417 296.49313383 115 297 C117.90760538 298.23727888 119.41945522 299.08946135 121.11328125 301.74609375 C123.75778937 308.46803729 122.08957404 316.36252953 120 323 C119.55304449 326.32515255 119.2557434 329.65514548 119 333 C126.62955494 332.26638895 132.68204947 329.40837486 139.2890625 325.74414062 C143.38463766 323.53851962 146.21564146 322.53939405 151 323 C150.43766786 326.36678344 149.59655549 327.76838798 146.875 329.8125 C137.08551782 336.76215041 122.30021038 344.66782514 110 343 C107.16824978 340.94698109 106.24658038 339.36646625 105.625 335.921875 C105.13652111 326.21335709 107.91803492 316.42006141 110 307 C104.13620843 308.26342784 100.72408707 310.3784799 96.3125 314.375 C95.70801025 314.9117334 95.10352051 315.4484668 94.48071289 316.00146484 C92.63910036 317.65223295 90.81796601 319.32326441 89 321 C88.47180664 321.47759766 87.94361328 321.95519531 87.39941406 322.44726562 C78.61485301 330.4455717 71.89979645 339.62643419 65.22998047 349.42456055 C64 351 64 351 62 352 C58.4375 352.125 58.4375 352.125 55 352 C54.67 351.67 54.34 351.34 54 351 C54.36113174 345.13913284 56.27430936 340.8291437 59 335.6875 C59.55300781 334.61532227 59.55300781 334.61532227 60.1171875 333.52148438 C61.06997715 331.67675842 62.03419432 329.83794487 63 328 C63.33 327.34 63.66 326.68 64 326 C60.50674102 327.53228765 57.03356905 329.10566181 53.5625 330.6875 C52.56927734 331.12255859 51.57605469 331.55761719 50.55273438 332.00585938 C49.13637695 332.65844727 49.13637695 332.65844727 47.69140625 333.32421875 C46.81685791 333.71697998 45.94230957 334.10974121 45.04125977 334.5144043 C42.77570811 335.86129045 42.77570811 335.86129045 42.15820312 338.51757812 C41.96675282 341.52169337 42.64199708 343.1124451 43.9375 345.8125 C45.99169481 350.62947948 46.69548669 353.78384984 46 359 C42.97389565 365.05220871 38.70351428 368.09016346 32.34375 370.23046875 C31.0753125 370.54628906 29.806875 370.86210937 28.5 371.1875 C27.2315625 371.51105469 25.963125 371.83460938 24.65625 372.16796875 C16.67318278 373.98462828 6.75053796 376.08922422 -1.171875 373.2109375 C-3.81341041 371.49786256 -5.25330789 369.62003816 -7 367 C-7.11850186 360.95640514 -4.80782268 357.99761068 -0.85546875 353.80078125 C1.31332852 351.69590643 3.55536485 349.77791647 6 348 C5.38125 348.165 4.7625 348.33 4.125 348.5 C-6.40273536 350.18443766 -6.40273536 350.18443766 -10.91015625 348.12890625 C-15.04167514 345.03280487 -16.05479283 341.82055657 -17 337 C-17.54527344 337.51949219 -18.09054687 338.03898437 -18.65234375 338.57421875 C-27.95524196 347.17741179 -35.61122505 351.42302029 -48.40234375 351.19921875 C-51.87097915 350.9332031 -53.58491841 350.57089331 -56 348 C-56.98788118 345.03635646 -57.56599275 342.08987251 -58 339 C-58.87140625 339.33773438 -59.7428125 339.67546875 -60.640625 340.0234375 C-76.55796716 345.98382753 -94.74161697 349.61357954 -111 343 C-113.6538653 342.87446582 -113.6538653 342.87446582 -116 343 C-116.28721924 343.51908936 -116.57443848 344.03817871 -116.87036133 344.57299805 C-118.1834974 346.94500387 -119.49798679 349.31625711 -120.8125 351.6875 C-121.26431641 352.50412109 -121.71613281 353.32074219 -122.18164062 354.16210938 C-123.05916915 355.74422284 -123.94094722 357.32398832 -124.82739258 358.90112305 C-125.7818456 360.60952042 -126.70775273 362.33384168 -127.625 364.0625 C-128.07875 364.701875 -128.5325 365.34125 -129 366 C-132.1875 366.3125 -132.1875 366.3125 -135 366 C-136.61478792 361.19251935 -135.08449659 357.95729544 -133.0546875 353.5859375 C-132.73340881 352.86709885 -132.41213013 352.14826019 -132.08111572 351.40763855 C-131.02585439 349.0570904 -129.95102375 346.7161076 -128.875 344.375 C-128.13707554 342.74506434 -127.39994017 341.11477121 -126.66357422 339.48413086 C-120.81287265 326.57755125 -114.71715663 313.79421024 -108.49169922 301.06445312 C-106.02447749 295.99594785 -103.60579142 290.90448713 -101.1875 285.8125 C-100.76033691 284.914104 -100.33317383 284.01570801 -99.89306641 283.09008789 C-98.9281364 281.06033067 -97.96374832 279.03031849 -97 277 C-101.43825599 277.08067935 -105.87511798 277.19354135 -110.3125 277.3125 C-111.57513672 277.33505859 -112.83777344 277.35761719 -114.13867188 277.38085938 C-115.95141602 277.4340332 -115.95141602 277.4340332 -117.80078125 277.48828125 C-118.91622314 277.51446533 -120.03166504 277.54064941 -121.1809082 277.56762695 C-123.94828608 277.78420344 -123.94828608 277.78420344 -125.70849609 279.16674805 C-127.43037438 281.61090382 -128.62578098 284.11996616 -129.86328125 286.84375 C-130.13177383 287.43224731 -130.40026642 288.02074463 -130.67689514 288.6270752 C-131.56398154 290.5809829 -132.43914276 292.53992021 -133.3125 294.5 C-133.61657776 295.17772461 -133.92065552 295.85544922 -134.23394775 296.55371094 C-141.67311109 313.15937504 -148.48657554 330.01199014 -155 347 C-155.42571289 348.10875488 -155.85142578 349.21750977 -156.29003906 350.35986328 C-160.4329499 361.29847866 -163.77558834 372.31016923 -166.5 383.6875 C-166.75587891 384.73881104 -167.01175781 385.79012207 -167.27539062 386.87329102 C-169.36431697 396.1403273 -171.18591914 405.8722947 -165.875 414.28125 C-165 416 -165 416 -165 420 C-166 421 -166 421 -169.6875 421.375 C-173.22732299 421.31780358 -174.16053558 420.90189492 -177.375 418.9375 C-183.27508689 412.33502182 -182.41806998 404.4375188 -182 396 C-181.4145134 391.82685086 -180.50734593 387.77744497 -179.5 383.6875 C-179.22792725 382.55997314 -178.95585449 381.43244629 -178.67553711 380.27075195 C-170.92673014 349.08131292 -157.8903609 319.13118675 -144.50488281 289.9831543 C-144.04049805 288.96519775 -143.57611328 287.94724121 -143.09765625 286.8984375 C-142.69039307 286.01849121 -142.28312988 285.13854492 -141.86352539 284.23193359 C-140.81958452 281.932544 -140.81958452 281.932544 -141 279 C-145.48401485 278.92572351 -149.96770174 278.87133889 -154.45214844 278.83520508 C-155.9769515 278.82013849 -157.50171136 278.79968124 -159.02636719 278.77368164 C-161.22081166 278.73720294 -163.41468216 278.72025286 -165.609375 278.70703125 C-166.92905273 278.6913208 -168.24873047 278.67561035 -169.60839844 278.65942383 C-173.19152758 279.01923272 -174.37882718 279.66472433 -177 282 C-177.66 282 -178.32 282 -179 282 C-179.21785156 282.51820313 -179.43570312 283.03640625 -179.66015625 283.5703125 C-181.5440618 286.9866077 -183.97367944 289.860352 -186.4375 292.875 C-187.52662428 294.22088291 -188.61515262 295.56724826 -189.703125 296.9140625 C-190.25419922 297.59500977 -190.80527344 298.27595703 -191.37304688 298.97753906 C-193.84085074 302.04525924 -196.26399503 305.1472577 -198.6875 308.25 C-209.27964271 321.76398377 -220.30416297 334.91645162 -231.84765625 347.62890625 C-233.34238561 349.27555003 -234.82879715 350.92976736 -236.30859375 352.58984375 C-240.16773745 356.91755128 -244.07587531 361.13088397 -248.22021484 365.18579102 C-249.97870349 366.97829158 -251.60180273 368.836125 -253.2265625 370.75 C-256.8352948 374.89751955 -260.70889924 378.65334801 -264.75 382.375 C-265.44883301 383.023479 -266.14766602 383.67195801 -266.86767578 384.34008789 C-268.9081383 386.2307164 -270.95386739 388.1155129 -273 390 C-274.04450051 390.96980478 -275.08879572 391.93983074 -276.1328125 392.91015625 C-281.01998963 397.41443489 -286.00068935 401.71884771 -291.23046875 405.8203125 C-293.29217065 407.44292133 -295.33271244 409.08148654 -297.36328125 410.7421875 C-331.23271996 438.35670568 -369.17855621 461.27511995 -412.0625 471.25 C-412.69696045 471.40122314 -413.3314209 471.55244629 -413.98510742 471.70825195 C-428.42744563 474.85005038 -443.21462789 475.38343798 -457.9375 475.3125 C-458.76960999 475.31001251 -459.60171997 475.30752502 -460.45904541 475.30496216 C-472.52822807 475.24925111 -484.24805459 475.00567617 -496 472 C-496.92345215 471.76893555 -497.8469043 471.53787109 -498.79833984 471.29980469 C-523.29507398 465.01453645 -547.07287835 455.20076727 -566 438 C-566.72574219 437.35546875 -567.45148437 436.7109375 -568.19921875 436.046875 C-578.01220903 426.85070125 -585.67972963 414.14930416 -586.23828125 400.5234375 C-586.444321 391.00310761 -586.54890545 382.61474129 -582 374 C-581.49082031 373.00742187 -580.98164062 372.01484375 -580.45703125 370.9921875 C-574.25254195 359.66225052 -566.14851767 351.83691087 -556 344 C-554.824375 343.04867187 -554.824375 343.04867187 -553.625 342.078125 C-527.49755172 321.81260422 -493.54387574 310.69457074 -462 302 C-461.19385254 301.77489746 -460.38770508 301.54979492 -459.55712891 301.31787109 C-419.46302725 290.19882636 -378.4979706 283.86875104 -337.1605835 279.64364624 C-332.87069858 279.2034613 -328.58924025 278.7194733 -324.30859375 278.1953125 C-304.5219719 275.8443824 -284.65499529 274.97141413 -264.76098633 274.00170898 C-263.54386459 273.9420546 -262.32674286 273.88240021 -261.07273865 273.82093811 C-258.78067141 273.70954069 -256.48849094 273.60043853 -254.19618225 273.49412537 C-249.24902469 273.25602637 -244.32943691 272.95755034 -239.40014648 272.47045898 C-233.95115115 271.94954057 -228.54508739 271.84870002 -223.07421875 271.82421875 C-221.04100492 271.80105149 -219.00780171 271.7769355 -216.97460938 271.75195312 C-213.81689943 271.71671138 -210.65959285 271.68738237 -207.50170898 271.67407227 C-204.42124072 271.65860209 -201.3418908 271.61844785 -198.26171875 271.57421875 C-196.85064095 271.57708138 -196.85064095 271.57708138 -195.41105652 271.58000183 C-189.77855012 271.47504631 -186.44119098 270.80120154 -182 267 C-180.49388455 265.51072925 -180.49388455 265.51072925 -179.4296875 263.92578125 C-179.01468994 263.34973145 -178.59969238 262.77368164 -178.17211914 262.18017578 C-177.53004517 261.25567627 -177.53004517 261.25567627 -176.875 260.3125 C-176.40763428 259.65749512 -175.94026855 259.00249023 -175.45874023 258.32763672 C-173.96240862 256.22536906 -172.48096461 254.11311308 -171 252 C-170.01518089 250.61006878 -169.0295055 249.22074386 -168.04296875 247.83203125 C-165.64824809 244.45532792 -163.26491352 241.07088087 -160.88867188 237.68115234 C-159.39611891 235.5623291 -157.89654527 233.4490844 -156.39257812 231.33837891 C-148.84898602 220.73278853 -141.56682609 209.97144875 -134.375 199.125 C-133.23514772 197.40912616 -132.09508953 195.69338909 -130.95483398 193.9777832 C-129.24412092 191.40382164 -127.53357802 188.82974929 -125.82402039 186.25502014 C-122.46245351 181.19351301 -119.08833109 176.14075567 -115.69921875 171.09765625 C-108.90665143 160.983142 -102.17271215 150.86175058 -95.89770508 140.4152832 C-92.63325057 134.98826024 -89.22122049 129.6718639 -85.75 124.375 C-74.07377522 106.53138703 -62.93717533 88.35050772 -51.88916016 70.11328125 C-49.84157846 66.73892589 -47.78654829 63.36918027 -45.73046875 60 C-36.27985756 44.5072243 -36.27985756 44.5072243 -27.0625 28.875 C-26.63275879 28.13475586 -26.20301758 27.39451172 -25.76025391 26.63183594 C-23.53844117 22.77339333 -21.39585879 18.88449196 -19.3203125 14.9453125 C-18.8780835 14.11660645 -18.43585449 13.28790039 -17.98022461 12.43408203 C-17.14547905 10.8623326 -16.32487538 9.28295253 -15.52172852 7.69482422 C-11.93577243 0.95794737 -7.85371624 -2.05692568 0 0 Z M-357.5 289.5625 C-358.31635925 289.66246277 -359.13271851 289.76242554 -359.97381592 289.86541748 C-369.77297865 291.07544615 -379.49063758 292.53599942 -389.20361328 294.31030273 C-392.3441786 294.8808556 -395.48509697 295.41725319 -398.63671875 295.921875 C-414.60434747 298.51612951 -430.3030665 302.12014783 -446 306 C-446.84304688 306.20705566 -447.68609375 306.41411133 -448.5546875 306.62744141 C-471.80552362 312.43497899 -495.63326068 320.09008817 -517 331 C-517.84868652 331.433125 -518.69737305 331.86625 -519.57177734 332.3125 C-530.04625522 337.72960371 -539.92896821 343.41356651 -549 351 C-550.31871094 352.09248047 -550.31871094 352.09248047 -551.6640625 353.20703125 C-562.59653721 362.63670354 -573.04504946 374.9926711 -574.23828125 389.99609375 C-574.53200979 403.61582254 -571.07027551 414.05608695 -563 425 C-562.48824219 425.69609375 -561.97648438 426.3921875 -561.44921875 427.109375 C-545.55615578 446.82781541 -518.78538891 457.7733039 -495 464 C-493.89269531 464.33128906 -492.78539062 464.66257812 -491.64453125 465.00390625 C-470.82432529 470.69431624 -447.11923136 471.25109689 -426 467 C-424.92878906 466.84015625 -423.85757813 466.6803125 -422.75390625 466.515625 C-380.87141379 459.6052472 -343.69673798 434.74649555 -311 409 C-309.67742187 407.96939453 -309.67742187 407.96939453 -308.328125 406.91796875 C-303.16405968 402.85247012 -298.23379709 398.58957935 -293.37890625 394.16015625 C-291.21728048 392.19730067 -289.02473738 390.2803374 -286.8125 388.375 C-283.64888953 385.62348308 -280.69870213 382.72025183 -277.76171875 379.73046875 C-276.00558424 378.00548519 -274.18635605 376.40817536 -272.3125 374.8125 C-264.64354809 368.18795788 -257.46293064 360.89696968 -250.8984375 353.1796875 C-248.88022867 350.86248477 -246.79680873 348.61816556 -244.69921875 346.37304688 C-239.7022032 341.02264437 -234.92191761 335.57896778 -230.3359375 329.8671875 C-227.66125285 326.58421336 -224.89788868 323.38739413 -222.125 320.1875 C-216.18237953 313.30190579 -210.55529898 306.19960323 -205 299 C-204.05345665 297.77859063 -203.10684183 296.55723664 -202.16015625 295.3359375 C-195.8262887 288.3390636 -195.8262887 288.3390636 -193 280 C-248.16830416 279.26002068 -302.76754151 282.82439544 -357.5 289.5625 Z " fill="#060606" transform="translate(610,25)"/>
<path d="M0 0 C57.09042143 -0.27411309 113.96081822 0.4450517 171 3 C168.42732803 8.75406695 165.84465508 14.50335122 163.24462891 20.24511719 C162.44384304 22.01759027 161.64636978 23.79156565 160.85302734 25.56738281 C159.80817531 27.90392442 158.74965801 30.23378507 157.6875 32.5625 C157.21860352 33.62295532 157.21860352 33.62295532 156.74023438 34.70483398 C154.42553328 39.72474944 152.34615028 41.96684073 147.31445312 44.18261719 C144.04681007 45.38299733 140.77726839 46.57610838 137.5 47.75 C136.35917969 48.17410156 135.21835937 48.59820312 134.04296875 49.03515625 C132.94597656 49.43089844 131.84898437 49.82664062 130.71875 50.234375 C129.71779297 50.59756836 128.71683594 50.96076172 127.68554688 51.33496094 C124.91179018 52.02184396 123.60079599 52.12795549 121 51 C116.6451375 44.93715243 114.30985144 38.60594247 114.49609375 31.15625 C115.12187253 28.47849894 116.131363 27.00242963 118 25 C121.14238119 24.35724021 123.07013974 24.40022 125.8046875 26.1640625 C126.9928873 27.07688552 128.15650964 28.02289216 129.2890625 29.00390625 C130.99640716 30.23893278 130.99640716 30.23893278 133.2109375 29.65234375 C133.80132813 29.43707031 134.39171875 29.22179687 135 29 C134.6613539 24.63178289 134.6613539 24.63178289 132.1875 21.1875 C127.12252362 18.4379414 121.63519573 18.50959531 116 19 C110.63212102 20.88869816 107.54008416 23.91983169 105 29 C104.3181394 35.93662033 105.48309976 41.57134396 108 48 C105.96759116 50.11382581 103.92493008 52.21577804 101.875 54.3125 C101.02035156 55.20485352 101.02035156 55.20485352 100.1484375 56.11523438 C96.20863683 60.12219074 92.48483295 63.50301194 86.69921875 64.328125 C81.11111111 64.11111111 81.11111111 64.11111111 80 63 C79.90176004 61.52351124 79.87026481 60.04224583 79.875 58.5625 C79.87242187 57.75941406 79.86984375 56.95632813 79.8671875 56.12890625 C80 54 80 54 81 52 C81.22467831 50.46331135 81.40796805 48.92031946 81.5625 47.375 C81.68818359 46.14910156 81.68818359 46.14910156 81.81640625 44.8984375 C81.87699219 44.27195312 81.93757812 43.64546875 82 43 C75.69098263 42.56489535 73.21754402 43.08189488 68 47 C66.02352239 48.76576002 64.09763412 50.54201746 62.1875 52.375 C49.91186717 63.8471786 49.91186717 63.8471786 44.24609375 64.14453125 C43.50488281 64.09683594 42.76367188 64.04914063 42 64 C43.12340616 54.18797149 50.55857675 46.11934298 58 40 C68.10818237 32.88831438 68.10818237 32.88831438 73.2421875 33.19140625 C76 34 76 34 78 36 C80.54190002 36.2500773 80.54190002 36.2500773 83 36 C83.33 35.67 83.66 35.34 84 35 C83.85980612 30.13600487 83.85980612 30.13600487 81.21484375 26.31640625 C77.12757394 23.88711185 73.59811989 24.09999159 69 25 C57.39487077 29.22880909 47.71279274 35.98101504 39.375 45 C33.44632067 51.02932049 26.74916619 54.0361906 19 57 C18.35224609 57.2568457 17.70449219 57.51369141 17.03710938 57.77832031 C9.36914386 60.75605966 2.12584734 62.44857767 -6.125 62.5625 C-6.82351074 62.57724365 -7.52202148 62.5919873 -8.24169922 62.60717773 C-13.23837139 62.50613096 -16.14881922 61.11124136 -20 58 C-21.1875 56.0625 -21.1875 56.0625 -21 54 C-15.84317085 47.749298 -8.98493903 44.37971153 -1.75 41.125 C4.1464911 38.42379282 9.75332964 35.55359872 15.21484375 32.03125 C17 31 17 31 19 31 C18.505 29.515 18.505 29.515 18 28 C10.55666539 27.30109534 5.78101005 29.60130279 -0.75 33 C-2.59543629 33.94441414 -4.44427659 34.88221386 -6.296875 35.8125 C-7.10479492 36.23144531 -7.91271484 36.65039062 -8.74511719 37.08203125 C-11 38 -11 38 -15 38 C-14.71643327 29.78515765 -11.87626662 23.94344597 -8.0625 16.75 C-6.96854029 14.64140865 -5.87603742 12.53206068 -4.78515625 10.421875 C-4.29926025 9.49987305 -3.81336426 8.57787109 -3.31274414 7.62792969 C-2.0622707 5.12465722 -1.02281519 2.60257746 0 0 Z " fill="#EEEEEE" transform="translate(525,302)"/>
<path d="M0 0 C1 2 1 2 0.34179688 4.09008789 C-0.02880859 4.95883545 -0.39941406 5.82758301 -0.78125 6.72265625 C-1.20301514 7.71837646 -1.62478027 8.71409668 -2.05932617 9.73999023 C-2.53474854 10.83641846 -3.0101709 11.93284668 -3.5 13.0625 C-4.24117065 14.79125366 -4.24117065 14.79125366 -4.99731445 16.55493164 C-11.12484188 30.75180191 -17.57054734 44.80586309 -24.01824951 58.859375 C-26.60636578 64.50254651 -29.18744131 70.14894415 -31.76956177 75.79486084 C-32.7490509 77.93542584 -33.72979746 80.07541136 -34.71069336 82.21533203 C-38.53893295 90.57382991 -42.33047655 98.94798027 -46.09375 107.3359375 C-46.95988301 109.26313724 -47.8260936 111.19030211 -48.69238281 113.11743164 C-49.96271737 115.94353165 -51.23120937 118.77037787 -52.49353027 121.60006714 C-53.66282419 124.22120786 -54.83863033 126.83934139 -56.015625 129.45703125 C-56.53183411 130.62188553 -56.53183411 130.62188553 -57.05847168 131.81027222 C-61.94326544 142.62884362 -61.94326544 142.62884362 -67 146 C-70.1171875 146.4140625 -70.1171875 146.4140625 -73.875 146.625 C-74.53250244 146.66294678 -75.19000488 146.70089355 -75.86743164 146.73999023 C-82.24370011 147.07735489 -88.61634423 147.09688516 -95 147 C-95.61572266 145.20361328 -95.61572266 145.20361328 -96 143 C-94.55569213 140.45874944 -93.09129981 138.22201068 -91.375 135.875 C-90.87137939 135.16400146 -90.36775879 134.45300293 -89.84887695 133.72045898 C-87.31511171 130.15697403 -84.73151875 126.63040736 -82.14453125 123.10546875 C-71.81705982 109.00393061 -62.21124121 94.4395983 -52.56445312 79.86865234 C-49.73331902 75.59430033 -46.88417975 71.3320987 -44.03271484 67.07128906 C-38.07700804 58.1690035 -32.21967482 49.2080442 -26.42138672 40.20263672 C-23.24916988 35.28684484 -20.05299973 30.38655943 -16.86206055 25.48291016 C-14.1560568 21.32263741 -11.4551008 17.15926184 -8.765625 12.98828125 C-8.25708984 12.20001953 -7.74855469 11.41175781 -7.22460938 10.59960938 C-6.26129271 9.10551161 -5.29900749 7.61074817 -4.33789062 6.11523438 C-1.11035156 1.11035156 -1.11035156 1.11035156 0 0 Z " fill="#EDEDED" transform="translate(539,149)"/>
<path d="M0 0 C3.42131721 2.87701675 5.51539794 4.82847823 5.94921875 9.421875 C5.80738211 13.87106636 4.9643676 16.72043459 1.75 19.875 C-1.77855307 22.46888501 -4.75493667 23.13717089 -9.09765625 22.84765625 C-12.80025972 21.92704522 -14.63714596 20.05599674 -17.25 17.3125 C-19.10110583 13.61028834 -18.71454795 9.35343083 -18.25 5.3125 C-14.08369499 -1.82973715 -7.50212871 -3.89533606 0 0 Z " fill="#EAEAEA" transform="translate(709.25,435.6875)"/>
<path d="M0 0 C11.8 0 11.8 0 16 3 C18.46086583 5.6501632 19.87266561 7.55602797 20.1953125 11.21484375 C19.95308617 15.49655038 19.33666373 17.57474055 16.625 21 C10.90190213 25.36045552 8.33224124 24 0 24 C0 16.08 0 8.16 0 0 Z " fill="#ECECEC" transform="translate(474,434)"/>
<path d="M0 0 C1.57845871 4.14345411 2.66021929 7.56709907 2 12 C-1.60565479 17.00139212 -6.09183339 18.945568 -12 20 C-16.67940017 20.22753954 -21.31971606 20.17975486 -26 20 C-26.33 18.68 -26.66 17.36 -27 16 C-7.98157389 -0.5349203 -7.98157389 -0.5349203 0 0 Z " fill="#E7E7E7" transform="translate(641,370)"/>
<path d="M0 0 C12 0 12 0 15.3125 2.0625 C17 5 17 5 17 8.625 C16.06579141 11.77795399 15.58725064 13.08768431 13 15 C13.66 16.11375 14.32 17.2275 15 18.375 C17 21.75 17 21.75 17 24 C16.01 24 15.02 24 14 24 C13.79246094 23.43410156 13.58492187 22.86820312 13.37109375 22.28515625 C12.40493866 19.98497949 11.47797423 18.01464498 10 16 C6.37346335 14.86043273 6.37346335 14.86043273 3 15 C3 17.97 3 20.94 3 24 C2.01 24 1.02 24 0 24 C0 16.08 0 8.16 0 0 Z " fill="#424242" transform="translate(828,434)"/>
<path d="M0 0 C12.46043906 -0.37011205 12.46043906 -0.37011205 14.890625 1.296875 C16.78875154 4.21090026 16.41255316 6.64063859 16 10 C14.625 12.4375 14.625 12.4375 12 14 C8.63939316 14.32131194 5.36437766 14.23114045 2 14 C2 16.97 2 19.94 2 23 C1.34 23 0.68 23 0 23 C0 15.41 0 7.82 0 0 Z " fill="#000000" transform="translate(742,435)"/>
<path d="M0 0 C0.99 0 1.98 0 3 0 C4.5056651 3.62267294 6.00356546 7.24850549 7.5 10.875 C7.92925781 11.90753906 8.35851562 12.94007813 8.80078125 14.00390625 C9.40986328 15.48310547 9.40986328 15.48310547 10.03125 16.9921875 C10.40830078 17.90339355 10.78535156 18.81459961 11.17382812 19.75341797 C12 22 12 22 12 24 C11.01 24 10.02 24 9 24 C8.34 21.69 7.68 19.38 7 17 C3.24999436 17.01273347 -0.34045888 17.14178903 -4 18 C-6.3155324 20.87129568 -6.3155324 20.87129568 -7 24 C-7.66 24 -8.32 24 -9 24 C-8.40227336 20.56506424 -7.52472216 17.55768504 -6.15234375 14.35546875 C-5.79462891 13.51435547 -5.43691406 12.67324219 -5.06835938 11.80664062 C-4.50858398 10.51016602 -4.50858398 10.51016602 -3.9375 9.1875 C-3.37192383 7.86202148 -3.37192383 7.86202148 -2.79492188 6.50976562 C-1.86751446 4.33798876 -0.93576366 2.16818633 0 0 Z " fill="#181818" transform="translate(752,401)"/>
<path d="M0 0 C11.8 0 11.8 0 16 3 C18.46086583 5.6501632 19.87266561 7.55602797 20.1953125 11.21484375 C19.95308617 15.49655038 19.33666373 17.57474055 16.625 21 C10.90190213 25.36045552 8.33224124 24 0 24 C0 16.08 0 8.16 0 0 Z M3 3 C3 9.27 3 15.54 3 22 C9.84628585 22 11.0698031 21.99111177 16 18 C17.59616743 14.80766515 17.51466114 11.46538503 17 8 C15.12984906 5.56880377 13.71861655 4.35930827 11 3 C8.36 3 5.72 3 3 3 Z " fill="#333333" transform="translate(474,434)"/>
<path d="M0 0 C5.61 0 11.22 0 17 0 C17 0.99 17 1.98 17 3 C12.38 3 7.76 3 3 3 C3 5.31 3 7.62 3 10 C6.63 10 10.26 10 14 10 C14 10.99 14 11.98 14 13 C10.37 13 6.74 13 3 13 C3 15.97 3 18.94 3 22 C7.62 22 12.24 22 17 22 C17 22.66 17 23.32 17 24 C11.39 24 5.78 24 0 24 C0 16.08 0 8.16 0 0 Z " fill="#3E3E3E" transform="translate(785,434)"/>
<path d="M0 0 C3.42131721 2.87701675 5.51539794 4.82847823 5.94921875 9.421875 C5.80738211 13.87106636 4.9643676 16.72043459 1.75 19.875 C-1.77855307 22.46888501 -4.75493667 23.13717089 -9.09765625 22.84765625 C-12.80025972 21.92704522 -14.63714596 20.05599674 -17.25 17.3125 C-19.10110583 13.61028834 -18.71454795 9.35343083 -18.25 5.3125 C-14.08369499 -1.82973715 -7.50212871 -3.89533606 0 0 Z M-14.3125 3.9375 C-16.43596947 7.63644682 -17.03053925 9.14962398 -16.25 13.3125 C-13.9741177 17.53731746 -13.9741177 17.53731746 -10.25 20.3125 C-5.71977058 20.43493863 -2.26667755 20.13080145 1.3125 17.25 C3.17954025 13.43474384 3.69025874 10.47650299 2.75 6.3125 C0.72047452 3.17000893 -0.71955631 1.67504634 -4.41015625 0.80078125 C-8.59941908 0.48606201 -11.38179264 0.77300402 -14.3125 3.9375 Z " fill="#2C2C2C" transform="translate(709.25,435.6875)"/>
<path d="M0 0 C5.61 0 11.22 0 17 0 C17 0.99 17 1.98 17 3 C12.38 3 7.76 3 3 3 C3 5.64 3 8.28 3 11 C6.63 11 10.26 11 14 11 C14 11.66 14 12.32 14 13 C10.37 13 6.74 13 3 13 C3 15.97 3 18.94 3 22 C7.62 22 12.24 22 17 22 C17 22.66 17 23.32 17 24 C11.39 24 5.78 24 0 24 C0 16.08 0 8.16 0 0 Z " fill="#252525" transform="translate(608,434)"/>
<path d="M0 0 C5.28 0 10.56 0 16 0 C16 0.99 16 1.98 16 3 C11.71 3 7.42 3 3 3 C3 5.31 3 7.62 3 10 C6.63 10 10.26 10 14 10 C14 10.99 14 11.98 14 13 C10.04 13 6.08 13 2 13 C2 15.97 2 18.94 2 22 C6.62 22 11.24 22 16 22 C16 22.66 16 23.32 16 24 C10.72 24 5.44 24 0 24 C0 16.08 0 8.16 0 0 Z " fill="#060606" transform="translate(521,434)"/>
<path d="M0 0 C-1.55500981 3.81684226 -4.03595495 6.19195732 -7 9 C-5.6744419 12.62276315 -4.05653045 15.63505348 -1.875 18.8125 C-1.33617187 19.60269531 -0.79734375 20.39289063 -0.2421875 21.20703125 C0.16773438 21.79871094 0.57765625 22.39039063 1 23 C0.01 23.33 -0.98 23.66 -2 24 C-4.31 20.7 -6.62 17.4 -9 14 C-12.68377223 15.57836298 -12.68377223 15.57836298 -14 17 C-14.36760731 19.32817964 -14.70241581 21.6618385 -15 24 C-15.66 24 -16.32 24 -17 24 C-17 16.41 -17 8.82 -17 1 C-16.34 1 -15.68 1 -15 1 C-15 4.96 -15 8.92 -15 13 C-14.34 13 -13.68 13 -13 13 C-12.75121094 12.43796875 -12.50242187 11.8759375 -12.24609375 11.296875 C-10.79540675 8.62288141 -9.0681815 6.53580462 -7.0625 4.25 C-6.02802734 3.05117188 -6.02802734 3.05117188 -4.97265625 1.828125 C-3 0 -3 0 0 0 Z " fill="#090909" transform="translate(854,401)"/>
<path d="M0 0 C0.99 0 1.98 0 3 0 C3.08126109 2.72977064 3.14061663 5.4571017 3.1875 8.1875 C3.21263672 8.95642578 3.23777344 9.72535156 3.26367188 10.51757812 C3.32380764 15.18812274 3.05424203 18.21957455 0 22 C-3.66781672 24.44521115 -6.73453233 24.72237759 -11 24 C-13.43119623 22.12984906 -14.64069173 20.71861655 -16 18 C-16.07194869 15.11629667 -16.09291708 12.25760336 -16.0625 9.375 C-16.05798828 8.57320313 -16.05347656 7.77140625 -16.04882812 6.9453125 C-16.03703168 4.96350994 -16.01909605 2.98174567 -16 1 C-15.34 1 -14.68 1 -14 1 C-13.96261719 2.10859375 -13.92523438 3.2171875 -13.88671875 4.359375 C-13.82104552 5.82294974 -13.75459865 7.28648991 -13.6875 8.75 C-13.66494141 9.47960937 -13.64238281 10.20921875 -13.61914062 10.9609375 C-13.40949156 15.15391874 -13.17545789 18.08099239 -10 21 C-7 21.58333333 -7 21.58333333 -4 21 C-1.96244908 19.44561998 -1.11535403 18.53169673 -0.56762695 16.00708008 C-0.52835083 14.89949341 -0.52835083 14.89949341 -0.48828125 13.76953125 C-0.45283203 12.96708984 -0.41738281 12.16464844 -0.38085938 11.33789062 C-0.35830078 10.50451172 -0.33574219 9.67113281 -0.3125 8.8125 C-0.27833984 7.96751953 -0.24417969 7.12253906 -0.20898438 6.25195312 C-0.12658529 4.16843351 -0.06161355 2.08423784 0 0 Z " fill="#080808" transform="translate(524,401)"/>
<path d="M0 0 C3.4375 1.875 3.4375 1.875 6 4 C6 4.66 6 5.32 6 6 C5.360625 5.67 4.72125 5.34 4.0625 5 C-0.02831104 3.66422497 -3.74140763 3.2293219 -8 4 C-11.07706081 6.55170897 -11.86329404 8.06258768 -12.4375 12 C-11.94702329 15.36326885 -11.01736344 17.28431844 -9 20 C-5.93570224 21.53214888 -3.3834358 21.22938548 0 21 C2.87146994 19.63002843 2.87146994 19.63002843 5 18 C5.33 18.99 5.66 19.98 6 21 C2.15122493 23.97969683 -1.04312522 24.57195116 -5.77734375 24.4296875 C-9.58350909 23.69387346 -11.35670706 21.77545759 -14 19 C-15.85110583 15.29778834 -15.46454795 11.04093083 -15 7 C-11.33070065 0.70977255 -7.11202755 -0.73572699 0 0 Z " fill="#121212" transform="translate(804,401)"/>
<path d="M0 0 C2.375 1 2.375 1 4 2 C4 2.66 4 3.32 4 4 C0.7 4 -2.6 4 -6 4 C-6 5.65 -6 7.3 -6 9 C-5.28972656 9.27714844 -4.57945312 9.55429687 -3.84765625 9.83984375 C-2.92855469 10.20207031 -2.00945313 10.56429688 -1.0625 10.9375 C-0.14597656 11.29714844 0.77054688 11.65679687 1.71484375 12.02734375 C4 13 4 13 5 14 C5.47033808 20.34956411 5.47033808 20.34956411 3.765625 22.70703125 C1.53067686 24.34368575 0.24692325 24.37201667 -2.5 24.3125 C-3.2734375 24.30863281 -4.046875 24.30476563 -4.84375 24.30078125 C-7 24 -7 24 -10 22 C-10 21.34 -10 20.68 -10 20 C-9.30132813 20.08378906 -8.60265625 20.16757812 -7.8828125 20.25390625 C-6.97273437 20.35574219 -6.06265625 20.45757812 -5.125 20.5625 C-4.22007812 20.66691406 -3.31515625 20.77132813 -2.3828125 20.87890625 C0.01653057 21.19674852 0.01653057 21.19674852 2 20 C2.2113453 17.6087705 2.2113453 17.6087705 1 15 C-1.22792917 13.71632987 -3.46663552 12.80150988 -5.87109375 11.89453125 C-8 11 -8 11 -10 9 C-10.51688277 5.72640914 -10.29673649 4.42227885 -8.375 1.6875 C-5.32300431 -0.48102325 -3.67698395 -0.45962299 0 0 Z " fill="#151515" transform="translate(673,401)"/>
<path d="M0 0 C0.99 0.33 1.98 0.66 3 1 C4.20718817 3.4613715 5.22605697 5.82064765 6.1875 8.375 C6.46013672 9.06078125 6.73277344 9.7465625 7.01367188 10.453125 C8.17139955 13.43594216 9 15.77442504 9 19 C9.66 19 10.32 19 11 19 C11.11601563 18.31421875 11.23203125 17.6284375 11.3515625 16.921875 C12.09602033 13.56733009 13.1733497 10.46896625 14.375 7.25 C14.79523437 6.10015625 15.21546875 4.9503125 15.6484375 3.765625 C16.09445312 2.85296875 16.54046875 1.9403125 17 1 C17.99 0.67 18.98 0.34 20 0 C19.26905294 5.05485927 17.31619096 9.59903179 15.4375 14.3125 C15.10814453 15.14845703 14.77878906 15.98441406 14.43945312 16.84570312 C13.63001123 18.89863546 12.81676543 20.94997286 12 23 C10.68 23 9.36 23 8 23 C6.6582322 19.73256344 5.32805641 16.46053092 4 13.1875 C3.6184375 12.25873047 3.236875 11.32996094 2.84375 10.37304688 C2.4828125 9.48037109 2.121875 8.58769531 1.75 7.66796875 C1.41484375 6.84578857 1.0796875 6.0236084 0.734375 5.17651367 C0 3 0 3 0 0 Z " fill="#171717" transform="translate(562,434)"/>
<path d="M0 0 C5.28 0 10.56 0 16 0 C16 0.99 16 1.98 16 3 C11.38 3 6.76 3 2 3 C2 5.64 2 8.28 2 11 C5.63 11 9.26 11 13 11 C13 11.66 13 12.32 13 13 C9.37 13 5.74 13 2 13 C2 16.63 2 20.26 2 24 C1.34 24 0.68 24 0 24 C0 16.08 0 8.16 0 0 Z " fill="#171717" transform="translate(466,401)"/>
<path d="M0 0 C1.423125 -0.061875 2.84625 -0.12375 4.3125 -0.1875 C5.51326172 -0.23970703 5.51326172 -0.23970703 6.73828125 -0.29296875 C9 0 9 0 10.8046875 1.3515625 C12 3 12 3 11.8125 5.5625 C11 8 11 8 9 10 C5.98173347 10.27240673 3.03629378 10.08675125 0 10 C0 6.7 0 3.4 0 0 Z " fill="#E2E2E2" transform="translate(744,437)"/>
<path d="M0 0 C5.94 0 11.88 0 18 0 C18 0.99 18 1.98 18 3 C15.36 3 12.72 3 10 3 C10 9.93 10 16.86 10 24 C9.34 24 8.68 24 8 24 C8 17.07 8 10.14 8 3 C5.36 3 2.72 3 0 3 C0 2.01 0 1.02 0 0 Z " fill="#202020" transform="translate(702,401)"/>
<path d="M0 0 C6.8359375 -0.1953125 6.8359375 -0.1953125 9 0 C11 2 11 2 11.25 4.5 C11 7 11 7 9 9 C5.98173347 9.27240673 3.03629378 9.08675125 0 9 C0 6.03 0 3.06 0 0 Z " fill="#F0F0F0" transform="translate(831,437)"/>
<path d="M0 0 C0.33 0 0.66 0 1 0 C1 6.27 1 12.54 1 19 C7.60917334 18.07979127 7.60917334 18.07979127 13.5625 15.375 C15.6440826 11.93586353 15.73346185 8.99807223 16 5 C16.99 5.33 17.98 5.66 19 6 C18.88286074 10.88790166 18.73371871 14.07319741 15.625 18 C10.16968906 22.15642739 7.82911392 21 0 21 C0 14.07 0 7.14 0 0 Z " fill="#0F0F0F" transform="translate(475,437)"/>
<path d="M0 0 C5.28 0 10.56 0 16 0 C16 0.99 16 1.98 16 3 C11.71 3 7.42 3 3 3 C3 5.31 3 7.62 3 10 C6.63 10 10.26 10 14 10 C13.67 10.99 13.34 11.98 13 13 C13 12.34 13 11.68 13 11 C9.04 11 5.08 11 1 11 C0.67 7.37 0.34 3.74 0 0 Z " fill="#424242" transform="translate(521,434)"/>
<path d="M0 0 C0.33 0 0.66 0 1 0 C1.09796875 0.60328125 1.1959375 1.2065625 1.296875 1.828125 C1.97693486 5.4629277 2.65965182 8.42821505 4.5625 11.625 C8.34987234 13.76146645 11.87962146 13.03009463 16 12 C17.35309877 11.37442351 18.69381444 10.71840206 20 10 C18.63016497 13.16115776 18.0109362 13.9927092 15 16 C11.22311096 16.68343706 7.52813111 16.85107095 4.11328125 14.94921875 C1.95758708 13.17977487 0.2541672 11.5083344 -1 9 C-1.18704404 6.30986661 -1.08581391 3.70313823 -1 1 C-0.67 0.67 -0.34 0.34 0 0 Z " fill="#111111" transform="translate(692,442)"/>
<path d="M0 0 C0.66 0 1.32 0 2 0 C2 6.93 2 13.86 2 21 C5.96 21 9.92 21 14 21 C14 21.66 14 22.32 14 23 C9.38 23 4.76 23 0 23 C0 15.41 0 7.82 0 0 Z " fill="#000000" transform="translate(652,435)"/>
<path d="M0 0 C0.66 0 1.32 0 2 0 C2 6.93 2 13.86 2 21 C5.96 21 9.92 21 14 21 C14 21.66 14 22.32 14 23 C9.38 23 4.76 23 0 23 C0 15.41 0 7.82 0 0 Z " fill="#020202" transform="translate(555,402)"/>
<path d="M0 0 C0.66 0 1.32 0 2 0 C2 6.93 2 13.86 2 21 C5.96 21 9.92 21 14 21 C14 21.66 14 22.32 14 23 C9.38 23 4.76 23 0 23 C0 15.41 0 7.82 0 0 Z " fill="#000000" transform="translate(596,402)"/>
<path d="M0 0 C3.96 0 7.92 0 12 0 C12 0.33 12 0.66 12 1 C8.7 1 5.4 1 2 1 C2 4.3 2 7.6 2 11 C6.62 11 11.24 11 16 11 C16 11.66 16 12.32 16 13 C10.72 13 5.44 13 0 13 C0 8.71 0 4.42 0 0 Z " fill="#080808" transform="translate(786,445)"/>
<path d="M0 0 C3.4375 1.875 3.4375 1.875 6 4 C6 4.66 6 5.32 6 6 C5.360625 5.67 4.72125 5.34 4.0625 5 C-0.02246296 3.66613454 -3.74825987 3.2052101 -8 4 C-10.93973281 6.35418376 -10.93973281 6.35418376 -13 9 C-13.66 9 -14.32 9 -15 9 C-14.03714243 5.53371274 -13.07650505 4.06582992 -10.3125 1.6875 C-6.4129894 -0.29904313 -4.32166691 -0.61738099 0 0 Z " fill="#232323" transform="translate(804,401)"/>
<path d="M0 0 C3.3 0 6.6 0 10 0 C10 0.33 10 0.66 10 1 C7.36 1 4.72 1 2 1 C2 4.63 2 8.26 2 12 C3.98 12 5.96 12 8 12 C8 12.33 8 12.66 8 13 C6.02 13 4.04 13 2 13 C2 16.3 2 19.6 2 23 C1.34 23 0.68 23 0 23 C0 15.41 0 7.82 0 0 Z " fill="#0F0F0F" transform="translate(829,435)"/>
<path d="M0 0 C1.13643966 3.40931897 0.86747764 4.00335456 -0.4375 7.1875 C-0.72496094 7.90292969 -1.01242187 8.61835938 -1.30859375 9.35546875 C-1.53675781 9.89816406 -1.76492188 10.44085938 -2 11 C0.64 11 3.28 11 6 11 C6 11.33 6 11.66 6 12 C5.38511719 12.00257813 4.77023437 12.00515625 4.13671875 12.0078125 C1.62855042 12.12782055 -0.57991767 12.31774275 -3 13 C-5.16247221 15.90251302 -5.16247221 15.90251302 -6 19 C-6.66 19 -7.32 19 -8 19 C-7.34362284 15.01011188 -6.12232204 11.53848439 -4.5625 7.8125 C-4.13066406 6.76707031 -3.69882812 5.72164063 -3.25390625 4.64453125 C-2 2 -2 2 0 0 Z " fill="#131313" transform="translate(751,406)"/>
<path d="M0 0 C0.99 0 1.98 0 3 0 C3 5.61 3 11.22 3 17 C2.01 17.33 1.02 17.66 0 18 C0 12.06 0 6.12 0 0 Z " fill="#2D2D2D" transform="translate(524,401)"/>
<path d="M0 0 C2.64465038 3.1254959 3.84414715 6.08788267 5 10 C2.03 10 -0.94 10 -4 10 C-3.52449439 8.51965236 -3.04448784 7.04074979 -2.5625 5.5625 C-2.29566406 4.73878906 -2.02882813 3.91507812 -1.75390625 3.06640625 C-1 1 -1 1 0 0 Z " fill="#E3E3E3" transform="translate(753,406)"/>
<path d="M0 0 C0.99 0.33 1.98 0.66 3 1 C4.20427373 3.48180012 5.22540913 5.86479775 6.1875 8.4375 C6.46013672 9.13166016 6.73277344 9.82582031 7.01367188 10.54101562 C9 15.68356438 9 15.68356438 9 18 C8.01 18 7.02 18 6 18 C4.9936345 15.56495491 3.99473587 13.12729136 3 10.6875 C2.71382812 9.99720703 2.42765625 9.30691406 2.1328125 8.59570312 C0.91089256 5.58454326 0 3.28113016 0 0 Z " fill="#1C1C1C" transform="translate(562,434)"/>
<path d="M0 0 C2 2 2 2 2.375 5.375 C2 9 2 9 0 11.4375 C-0.99 12.2109375 -0.99 12.2109375 -2 13 C-2.33 12.01 -2.66 11.02 -3 10 C-2.34 9.34 -1.68 8.68 -1 8 C-0.83318891 4.91652174 -0.83318891 4.91652174 -1 2 C-4.63 1.67 -8.26 1.34 -12 1 C-12 0.67 -12 0.34 -12 0 C-3.1409396 -1.32885906 -3.1409396 -1.32885906 0 0 Z " fill="#252525" transform="translate(756,436)"/>
<path d="M0 0 C2.58504106 0.98053282 3.97484325 1.97137335 5.8125 4.0625 C7.49276951 8.21895615 6.78327133 11.66841515 6 16 C5.01 16 4.02 16 3 16 C3.03480469 15.32453125 3.06960938 14.6490625 3.10546875 13.953125 C3.13253906 13.06109375 3.15960937 12.1690625 3.1875 11.25 C3.22230469 10.36828125 3.25710938 9.4865625 3.29296875 8.578125 C2.94708688 5.53436457 1.92206641 4.32060511 0 2 C0 1.34 0 0.68 0 0 Z " fill="#222222" transform="translate(708,436)"/>
<path d="M0 0 C2.375 1 2.375 1 4 2 C4 2.66 4 3.32 4 4 C0.7 4 -2.6 4 -6 4 C-6.66 5.32 -7.32 6.64 -8 8 C-8.99 8.495 -8.99 8.495 -10 9 C-10.35882213 5.77060081 -10.27258004 4.38790237 -8.375 1.6875 C-5.32300431 -0.48102325 -3.67698395 -0.45962299 0 0 Z " fill="#252525" transform="translate(673,401)"/>
<path d="M0 0 C4.08288689 1.3609623 4.88685817 3.47953322 7.1875 7.0625 C7.90292969 8.16722656 8.61835937 9.27195312 9.35546875 10.41015625 C9.89816406 11.26480469 10.44085937 12.11945313 11 13 C10.01 13.33 9.02 13.66 8 14 C7.51789062 13.28972656 7.03578125 12.57945312 6.5390625 11.84765625 C5.90742187 10.92855469 5.27578125 10.00945312 4.625 9.0625 C3.99851562 8.14597656 3.37203125 7.22945313 2.7265625 6.28515625 C1.20228929 3.91612836 1.20228929 3.91612836 -1 3 C-0.67 2.01 -0.34 1.02 0 0 Z " fill="#191919" transform="translate(844,411)"/>
<path d="M0 0 C0.99 0 1.98 0 3 0 C4.32 3.63 5.64 7.26 7 11 C6.01 11.33 5.02 11.66 4 12 C3.01 10.02 2.02 8.04 1 6 C0.01 6 -0.98 6 -2 6 C-1.34 4.02 -0.68 2.04 0 0 Z " fill="#242424" transform="translate(752,401)"/>
<path d="M0 0 C1 1 1 1 1.0625 4.0625 C1.041875 5.031875 1.02125 6.00125 1 7 C0.525625 6.195625 0.05125 5.39125 -0.4375 4.5625 C-3.99017572 1.00982428 -7.14072325 1.11421377 -12 1 C-12 0.67 -12 0.34 -12 0 C-3.27272727 -1.30909091 -3.27272727 -1.30909091 0 0 Z " fill="#212121" transform="translate(843,436)"/>
<path d="M0 0 C0.54269531 0.27714844 1.08539062 0.55429687 1.64453125 0.83984375 C2.71767578 1.38318359 2.71767578 1.38318359 3.8125 1.9375 C4.87404297 2.47697266 4.87404297 2.47697266 5.95703125 3.02734375 C8.11810285 4.10730516 8.11810285 4.10730516 11 5 C11 5.66 11 6.32 11 7 C3.11735941 6.24205379 3.11735941 6.24205379 0 3 C0 2.01 0 1.02 0 0 Z " fill="#0E0E0E" transform="translate(664,408)"/>
<path d="M0 0 C0.66 0 1.32 0 2 0 C1.39009109 3.55780196 0.4216319 6.6828589 -1 10 C-1.99 10 -2.98 10 -4 10 C-3.52449439 8.51965236 -3.04448784 7.04074979 -2.5625 5.5625 C-2.29566406 4.73878906 -2.02882813 3.91507812 -1.75390625 3.06640625 C-1 1 -1 1 0 0 Z " fill="#262626" transform="translate(580,434)"/>
<path d="M0 0 C0.66 0.33 1.32 0.66 2 1 C1.24172908 2.17487036 0.46792245 3.33972592 -0.3125 4.5 C-0.74175781 5.1496875 -1.17101562 5.799375 -1.61328125 6.46875 C-2.07089844 6.9740625 -2.52851562 7.479375 -3 8 C-3.99 8 -4.98 8 -6 8 C-4.73058503 4.08597051 -3.48832306 2.20927127 0 0 Z " fill="#232323" transform="translate(697,435)"/>
<path d="M0 0 C1.875 0.625 1.875 0.625 4 2 C5.25 5.125 5.25 5.125 6 8 C5.01 8 4.02 8 3 8 C0 2.25 0 2.25 0 0 Z " fill="#1D1D1D" transform="translate(839,450)"/>
<path d="M0 0 C0 3 0 3 -1.1875 4.625 C-3.41406801 6.31412056 -5.25851328 6.62952882 -8 7 C-6.5361389 2.60841671 -4.02168662 2.12052567 0 0 Z " fill="#181818" transform="translate(491,451)"/>
<path d="M0 0 C0.66 0 1.32 0 2 0 C1.75 3.375 1.75 3.375 1 7 C-1.0625 8.4375 -1.0625 8.4375 -3 9 C-2.30058404 5.85262818 -1.23921302 2.97411124 0 0 Z " fill="#161616" transform="translate(756,440)"/>
<path d="M0 0 C0.99 0.33 1.98 0.66 3 1 C4.1875 4.5625 4.1875 4.5625 5 8 C4.01 8 3.02 8 2 8 C0.74335022 5.09399739 0 3.20395416 0 0 Z " fill="#272727" transform="translate(562,434)"/>
<path d="M0 0 C2.475 0.495 2.475 0.495 5 1 C4.67 2.65 4.34 4.3 4 6 C3.01 5.67 2.02 5.34 1 5 C0.67 3.35 0.34 1.7 0 0 Z " fill="#101010" transform="translate(569,452)"/>
<path d="M0 0 C0.33 0.99 0.66 1.98 1 3 C0.319375 2.690625 -0.36125 2.38125 -1.0625 2.0625 C-4.36965912 0.86629351 -7.51545878 0.40994603 -11 0 C-11 -0.33 -11 -0.66 -11 -1 C-6.65621014 -2.01018369 -3.941316 -2.25218057 0 0 Z " fill="#2E2E2E" transform="translate(809,404)"/>
<path d="M0 0 C0.33 0.66 0.66 1.32 1 2 C0.06421005 4.35981813 -0.93347808 6.69631264 -2 9 C-2.99 9 -3.98 9 -5 9 C-3.7508258 5.54074837 -2.32472205 2.85306797 0 0 Z " fill="#BEBEBE" transform="translate(539,149)"/>
<path d="M0 0 C0.33 0.99 0.66 1.98 1 3 C-0.65 4.32 -2.3 5.64 -4 7 C-4.33 6.01 -4.66 5.02 -5 4 C-3.35 2.68 -1.7 1.36 0 0 Z " fill="#181818" transform="translate(525,418)"/>
<path d="M0 0 C2.62187494 1.04874998 3.79371361 1.64931313 5.25 4.125 C5.4975 4.74375 5.745 5.3625 6 6 C4.125 5.8125 4.125 5.8125 2 5 C0.75 2.4375 0.75 2.4375 0 0 Z " fill="#181818" transform="translate(708,436)"/>
<path d="M0 0 C0.99 0 1.98 0 3 0 C1.63016497 3.16115776 1.0109362 3.9927092 -2 6 C-2 3 -2 3 0 0 Z " fill="#2C2C2C" transform="translate(851,401)"/>
</svg>
